<svg xmlns="http://www.w3.org/2000/svg" version="1.1" xmlns:xlink="http://www.w3.org/1999/xlink" xmlns:svgjs="http://svgjs.com/svgjs" width="1250" height="560" preserveAspectRatio="none" viewBox="0 0 1250 560"><g mask="url(&quot;#SvgjsMask1453&quot;)" fill="none"><rect width="1250" height="560" x="0" y="0" fill="url(#SvgjsRadialGradient1454)"></rect><path d="M575.023,357.7C607.253,355.18,633.621,335.743,650.926,308.437C669.865,278.553,684.325,242.319,668.057,210.901C650.78,177.534,612.542,159.804,575.023,161.847C540.567,163.723,516.245,190.854,498.024,220.158C478.311,251.863,457.104,289.588,475.341,322.165C493.81,355.155,537.33,360.647,575.023,357.7" fill="rgba(28, 83, 142, 0.4)" class="triangle-float3"></path><path d="M1151.536,379.699C1192.603,378.634,1236.826,373.817,1259.224,339.379C1283.339,302.3,1279.524,254.373,1258.278,215.579C1236.102,175.087,1197.695,143.62,1151.536,142.745C1104.005,141.844,1061.453,170.303,1037.544,211.393C1013.486,252.738,1006.89,305.624,1033.715,345.23C1058.309,381.543,1107.693,380.837,1151.536,379.699" fill="rgba(28, 83, 142, 0.4)" class="triangle-float2"></path><path d="M958.72,238.708C976.193,238.906,994.973,234.713,1003.744,219.6C1012.54,204.444,1007.438,185.698,998.087,170.877C989.43,157.155,974.894,149.518,958.72,148.236C939.44,146.708,916.96,147.172,906.826,163.644C896.413,180.569,904.131,202.252,915.432,218.598C925.13,232.625,941.668,238.515,958.72,238.708" fill="rgba(28, 83, 142, 0.4)" class="triangle-float1"></path><path d="M656,327.713C694.247,326.855,727.084,304.032,747.096,271.427C768.221,237.009,781.278,193.087,759.508,159.073C738.754,126.647,694.4,126.33,656,129.096C623.424,131.442,593.664,145.217,575.453,172.329C554.559,203.436,540.297,242.408,557.543,275.677C575.853,310.999,616.224,328.605,656,327.713" fill="rgba(28, 83, 142, 0.4)" class="triangle-float2"></path><path d="M781.558,188.481C825.868,190.836,873.607,180.289,896.959,142.558C921.287,103.249,912.177,53.886,889.944,13.355C866.677,-29.061,829.935,-67.504,781.558,-67.819C732.77,-68.137,691.876,-32.027,670.7,11.927C652.042,50.655,662.756,94.918,685.615,131.324C706.832,165.114,741.715,186.363,781.558,188.481" fill="rgba(28, 83, 142, 0.4)" class="triangle-float3"></path><path d="M871.831,475.357C898.345,476.874,923.862,463.353,937.527,440.581C951.586,417.152,951.498,388.19,938.587,364.11C924.895,338.574,900.795,317.247,871.831,318.052C843.858,318.829,823.016,342.28,811.207,367.65C801.191,389.169,806.341,413.055,817.984,433.74C829.91,454.928,847.557,473.968,871.831,475.357" fill="rgba(28, 83, 142, 0.4)" class="triangle-float2"></path></g><defs><mask id="SvgjsMask1453"><rect width="1250" height="560" fill="#ffffff"></rect></mask><radialGradient cx="100%" cy="50%" r="1280.98" gradientUnits="userSpaceOnUse" id="SvgjsRadialGradient1454"><stop stop-color="rgba(14, 70, 71, 0)" offset="0"></stop><stop stop-color="rgba(255, 255, 255, 0)" offset="1"></stop></radialGradient><style>
            @keyframes float1 {
                0%{transform: translate(0, 0)}
                50%{transform: translate(-10px, 0)}
                100%{transform: translate(0, 0)}
            }

            .triangle-float1 {
                animation: float1 5s infinite;
            }

            @keyframes float2 {
                0%{transform: translate(0, 0)}
                50%{transform: translate(-5px, -5px)}
                100%{transform: translate(0, 0)}
            }

            .triangle-float2 {
                animation: float2 4s infinite;
            }

            @keyframes float3 {
                0%{transform: translate(0, 0)}
                50%{transform: translate(0, -10px)}
                100%{transform: translate(0, 0)}
            }

            .triangle-float3 {
                animation: float3 6s infinite;
            }
        </style></defs></svg>